<svg xmlns="http://www.w3.org/2000/svg" xmlns:xlink="http://www.w3.org/1999/xlink" width="13" height="8" viewBox="0 0 13 8"><defs><path id="hdgza" d="M659.092 2423.55h-14.57v-1.618c0-.372.302-.675.674-.675h.81v1.35h1.348v-1.35h8.905v1.35h1.35v-1.35h.809c.372 0 .674.303.674.675zm0 10.254a.675.675 0 0 1-.674.675h-13.222a.675.675 0 0 1-.675-.675v-8.904h14.571zm-1.484-13.896v-1.35h-1.35v1.35h-8.904v-1.35h-1.349v1.35h-.81a2.026 2.026 0 0 0-2.023 2.024v11.872c0 1.116.908 2.024 2.024 2.024h13.222a2.026 2.026 0 0 0 2.023-2.024v-11.872a2.026 2.026 0 0 0-2.023-2.024z"/><path id="hdgzb" d="M645.735 2427.666v-1.35h1.35v1.35z"/><path id="hdgzc" d="M648.434 2427.666v-1.35h1.349v1.35z"/><path id="hdgzd" d="M651.132 2427.666v-1.35h1.35v1.35z"/><path id="hdgze" d="M653.83 2427.666v-1.35h1.35v1.35z"/><path id="hdgzf" d="M656.529 2427.666v-1.35h1.349v1.35z"/><path id="hdgzg" d="M645.735 2430.364v-1.35h1.35v1.35z"/><path id="hdgzh" d="M648.434 2430.364v-1.35h1.349v1.35z"/><path id="hdgzi" d="M651.132 2430.364v-1.35h1.35v1.35z"/><path id="hdgzj" d="M653.83 2430.364v-1.35h1.35v1.35z"/><path id="hdgzk" d="M645.735 2433.062v-1.349h1.35v1.35z"/><path id="hdgzl" d="M648.434 2433.062v-1.349h1.349v1.35z"/><path id="hdgzm" d="M651.132 2433.062v-1.349h1.35v1.35z"/><path id="hdgzn" d="M653.83 2433.062v-1.349h1.35v1.35z"/><path id="hdgzo" d="M656.529 2430.364v-1.35h1.349v1.35z"/></defs><g><g transform="translate(-645 -2426)"><g><g><g><use fill="#ffa700" xlink:href="#hdgza"/></g></g></g><g><g><g><use fill="#ffa700" xlink:href="#hdgzb"/></g></g></g><g><g><g><use fill="#ffa700" xlink:href="#hdgzc"/></g></g></g><g><g><g><use fill="#ffa700" xlink:href="#hdgzd"/></g></g></g><g><g><g><use fill="#ffa700" xlink:href="#hdgze"/></g></g></g><g><g><g><use fill="#ffa700" xlink:href="#hdgzf"/></g></g></g><g><g><g><use fill="#ffa700" xlink:href="#hdgzg"/></g></g></g><g><g><g><use fill="#ffa700" xlink:href="#hdgzh"/></g></g></g><g><g><g><use fill="#ffa700" xlink:href="#hdgzi"/></g></g></g><g><g><g><use fill="#ffa700" xlink:href="#hdgzj"/></g></g></g><g><g><g><use fill="#ffa700" xlink:href="#hdgzk"/></g></g></g><g><g><g><use fill="#ffa700" xlink:href="#hdgzl"/></g></g></g><g><g><g><use fill="#ffa700" xlink:href="#hdgzm"/></g></g></g><g><g><g><use fill="#ffa700" xlink:href="#hdgzn"/></g></g></g><g><g><g><use fill="#ffa700" xlink:href="#hdgzo"/></g></g></g></g></g></svg>