<svg xmlns="http://www.w3.org/2000/svg" xmlns:xlink="http://www.w3.org/1999/xlink" width="50" height="50" viewBox="0 0 50 50"><defs><path id="o1u6a" d="M671.451 1436.453a5.647 5.647 0 0 0-5.64 5.64c0 3.112 2.53 5.642 5.64 5.642s5.642-2.53 5.642-5.641-2.531-5.641-5.642-5.641zm0 13.735c-4.462 0-8.093-3.631-8.093-8.094 0-4.463 3.63-8.094 8.093-8.094s8.094 3.631 8.094 8.094c0 4.463-3.63 8.094-8.094 8.094z"/><path id="o1u6b" d="M643 1475.148c0-15.713 12.738-28.451 28.451-28.451 15.713 0 28.451 12.738 28.451 28.45 0 15.714-12.738 28.452-28.45 28.452-15.714 0-28.452-12.738-28.452-28.451z"/><path id="o1u6c" d="M646.835 1475.238c0-13.546 10.98-24.527 24.526-24.527s24.527 10.981 24.527 24.527c0 13.546-10.981 24.527-24.527 24.527-13.545 0-24.526-10.981-24.526-24.527z"/><path id="o1u6d" d="M672.936 1473.653l10.743 13.723-13.724-10.741-10.73-13.713z"/><path id="o1u6e" d="M672.948 1476.635l-13.723 10.742 10.741-13.724 13.713-10.73z"/><path id="o1u6f" d="M672.716 1475.153l-1.264 17.318-1.266-17.314 1.265-17.3z"/><path id="o1u6g" d="M667.234 1475.15a4.217 4.217 0 1 1 8.434 0 4.217 4.217 0 0 1-8.434 0z"/><path id="o1u6h" d="M668.64 1475.15a2.812 2.812 0 1 1 5.623 0 2.812 2.812 0 0 1-5.624 0z"/><path id="o1u6i" d="M672.507 1452.161h.666v3.944h-.723l-2.235-2.878v2.878h-.665v-3.944h.665l2.292 2.946v-2.946z"/><path id="o1u6j" d="M671.35 1494.845a.875.875 0 0 0-.477.118.396.396 0 0 0-.186.36c0 .159.062.281.186.366.124.085.388.175.793.273.404.098.709.236.914.412.205.177.308.438.308.782 0 .344-.13.624-.39.838-.26.215-.6.322-1.021.322a2.399 2.399 0 0 1-1.642-.638l.417-.502c.399.346.813.52 1.242.52.214 0 .384-.047.51-.139a.433.433 0 0 0 .19-.367.412.412 0 0 0-.178-.355c-.119-.085-.323-.162-.613-.232s-.51-.134-.66-.192a1.484 1.484 0 0 1-.4-.229c-.234-.177-.35-.447-.35-.812 0-.365.132-.646.397-.844.266-.197.594-.296.985-.296.252 0 .502.041.75.124.249.083.463.2.644.35l-.355.502a1.343 1.343 0 0 0-.474-.26 1.834 1.834 0 0 0-.59-.101z"/><path id="o1u6k" d="M693.772 1473.266v.626h-2.105v1.044h1.89v.593h-1.89v1.055h2.173v.626H691v-3.944z"/><path id="o1u6l" d="M650.592 1476.105l.88-2.839h.599l.88 2.839.993-2.839h.717l-1.377 3.944h-.66l-.83-2.703h-.045l-.83 2.703h-.66l-1.377-3.944h.717z"/></defs><g><g transform="translate(-646 -1450)"><g><g><use fill="#64798a" xlink:href="#o1u6a"/></g><g><use fill="#64798a" xlink:href="#o1u6b"/></g></g><g><use fill="#e1e6e9" xlink:href="#o1u6c"/></g><g><use fill="#e56353" xlink:href="#o1u6d"/></g><g><use fill="#27a2db" xlink:href="#o1u6e"/></g><g><use fill="#44c4a1" xlink:href="#o1u6f"/></g><g><use fill="#dc8744" xlink:href="#o1u6g"/></g><g><use fill="#ebf0f3" xlink:href="#o1u6h"/></g><g><g><use fill="#64798a" xlink:href="#o1u6i"/></g><g><use fill="#64798a" xlink:href="#o1u6j"/></g><g><use fill="#64798a" xlink:href="#o1u6k"/></g><g><use fill="#64798a" xlink:href="#o1u6l"/></g></g></g></g></svg>