<svg xmlns="http://www.w3.org/2000/svg" xmlns:xlink="http://www.w3.org/1999/xlink" width="22" height="22" viewBox="0 0 22 22"><defs><path id="lkana" d="M676.247 1678.896c.063-4.44 3.072-8.02 6.787-8.02 0 4.029-2.943 7.36-6.787 8.02zm-9.528-8.02c3.715 0 6.724 3.58 6.787 8.02-3.845-.66-6.787-3.991-6.787-8.02zm8.157 1.36a1.36 1.36 0 1 1 0-2.719 1.36 1.36 0 0 1 0 2.719zm0-9.517c3.54 0 6.53 2.28 7.659 5.438h-15.317c1.13-3.158 4.119-5.438 7.658-5.438zm0-2.719c-6.006 0-10.876 4.87-10.876 10.876 0 6.007 4.87 10.877 10.876 10.877 6.007 0 10.877-4.87 10.877-10.877 0-6.006-4.87-10.876-10.877-10.876z"/></defs><use fill="#fff" xlink:href="#lkana" transform="translate(-664 -1660)"/></svg>