<svg xmlns="http://www.w3.org/2000/svg" xmlns:xlink="http://www.w3.org/1999/xlink" width="36" height="37" viewBox="0 0 36 37"><defs><path id="ao88a" d="M1094.353 1158.462c-5.881 0-11.654 2.412-15.838 6.619a.704.704 0 1 0 .999.993c3.921-3.942 9.33-6.204 14.84-6.204a.704.704 0 1 0 0-1.408z"/><path id="ao88b" d="M1079.667 1157.81a.704.704 0 0 0-.977-.19 27.796 27.796 0 0 0-7.56 7.565.704.704 0 0 0 1.17.785 26.388 26.388 0 0 1 7.178-7.183.704.704 0 0 0 .19-.978z"/><path id="ao88c" d="M1094.353 1152.793c-3.148 0-6.265.537-9.262 1.598a.704.704 0 1 0 .47 1.328 26.294 26.294 0 0 1 8.792-1.518.704.704 0 1 0 0-1.408z"/><path id="ao88d" d="M1074.986 1146.117h6.644v3.966a33.055 33.055 0 0 0-4.61 2.348 33.392 33.392 0 0 0-2.034-1.146zm-3.803 3.488a33.062 33.062 0 0 0-1.69-.572v-.534h1.69zm-4.084-3.488h6.479v4.478c-.327-.15-.655-.295-.986-.435v-2.365a.704.704 0 0 0-.704-.704h-3.099a.705.705 0 0 0-.704.704v.838a33.414 33.414 0 0 0-.986-.242zm3.24-3.673l2.25 2.264h-4.501zm10.302 2.264h-6.066l-2.543-2.558h6.065zm-19.41-5.47c0-1.795.804-3.502 2.276-4.857 1.473 1.355 2.277 3.062 2.277 4.858 0 1.485-.55 2.908-1.573 4.123v-4.687a.704.704 0 1 0-1.408 0v4.687c-1.023-1.215-1.573-2.638-1.573-4.123zm23.221-.655c0-2.504 1.146-4.875 3.239-6.733 2.093 1.858 3.238 4.23 3.238 6.733 0 2.205-.89 4.309-2.534 6.049v-5.393a.704.704 0 1 0-1.408 0v5.393c-1.645-1.74-2.535-3.844-2.535-6.05zm-15.362 22.866c4.633-6.04 11.34-10.235 18.74-11.807h.005a31.388 31.388 0 0 1 6.518-.687.705.705 0 0 0 0-1.409 33.14 33.14 0 0 0-5.958.542v-1.52c2.546-2.155 3.943-4.979 3.943-7.985 0-3.11-1.494-6.022-4.206-8.203a.705.705 0 0 0-.883 0c-2.712 2.18-4.205 5.094-4.205 8.203 0 3.006 1.397 5.83 3.942 7.985v1.808a33.345 33.345 0 0 0-3.948 1.16v-4.123a.702.702 0 0 0-.205-.497l-3.943-3.967a.705.705 0 0 0-.5-.208h-8.052a.704.704 0 0 0-.499.208l-3.944 3.967a.702.702 0 0 0-.205.497v2.69c-.49-.09-.983-.17-1.479-.238v-2.51c1.925-1.656 2.981-3.815 2.981-6.116 0-2.404-1.152-4.653-3.244-6.336a.704.704 0 0 0-.882 0c-2.092 1.682-3.244 3.932-3.244 6.336 0 2.3 1.056 4.46 2.98 6.116v2.348a33.285 33.285 0 0 0-3.098-.145.704.704 0 1 0 0 1.408c5.631 0 11.14 1.49 15.995 4.317a33.244 33.244 0 0 0-3.326 2.584 28.018 28.018 0 0 0-12.669-3.063.704.704 0 0 0 0 1.409c3.97 0 7.948.923 11.562 2.676a33.285 33.285 0 0 0-2.995 3.316 22.03 22.03 0 0 0-8.567-1.731.704.704 0 0 0 0 1.408c2.641 0 5.223.5 7.69 1.487-.487.676-.95 1.37-1.384 2.084l-1.073 1.758a.704.704 0 1 0 1.202.733l1.073-1.758c.56-.917 1.164-1.799 1.809-2.646a.667.667 0 0 0 .07-.09z"/><path id="ao88e" d="M1087.69 1137.267a.709.709 0 0 0 .705-.704.708.708 0 0 0-.704-.705.708.708 0 0 0-.704.705.708.708 0 0 0 .704.704z"/><path id="ao88f" d="M1081.578 1155.948a.71.71 0 0 0-.206.498.708.708 0 0 0 .704.704.708.708 0 0 0 .704-.704.708.708 0 0 0-.704-.704.71.71 0 0 0-.498.206z"/></defs><g><g transform="translate(-1059 -1130)"><g><use fill="#ffa700" xlink:href="#ao88a"/></g><g><use fill="#ffa700" xlink:href="#ao88b"/></g><g><use fill="#ffa700" xlink:href="#ao88c"/></g><g><use fill="#ffa700" xlink:href="#ao88d"/></g><g><use fill="#ffa700" xlink:href="#ao88e"/></g><g><use fill="#ffa700" xlink:href="#ao88f"/></g></g></g></svg>