<svg xmlns="http://www.w3.org/2000/svg" xmlns:xlink="http://www.w3.org/1999/xlink" width="60" height="60" viewBox="0 0 60 60"><defs><path id="pb6la" d="M1526.666 287.646h-33.134c-7.117 0-12.886 5.769-12.886 12.886v33.134c0 7.117 5.769 12.886 12.886 12.886h33.134c7.117 0 12.886-5.769 12.886-12.886v-33.134c0-7.117-5.769-12.886-12.886-12.886z"/><path id="pb6lb" d="M1539.552 312.449h-24.803v-24.803h-9.3v24.803h-24.803v9.3h24.803v24.803h9.3V321.75h24.803z"/><path id="pb6lc" d="M1499.054 297.929c-1.535.154-3.04.309-4.546.463.155-1.506.31-3.01.464-4.546a16.497 16.497 0 0 1-4.237 0c.154 1.536.31 3.04.464 4.546-1.507-.154-3.011-.309-4.546-.463a16.495 16.495 0 0 1 0 4.237c1.535-.155 3.04-.31 4.546-.464-.155 1.506-.31 3.01-.464 4.546a16.498 16.498 0 0 1 4.237 0c-.154-1.536-.31-3.04-.464-4.546 1.507.154 3.01.31 4.546.464a16.495 16.495 0 0 1 0-4.237z"/><path id="pb6ld" d="M1533.685 297.929c-1.536.154-3.04.309-4.547.463.155-1.506.31-3.01.465-4.546a16.497 16.497 0 0 1-4.238 0c.155 1.536.31 3.04.464 4.546-1.506-.154-3.01-.309-4.546-.463a16.495 16.495 0 0 1 0 4.237c1.536-.155 3.04-.31 4.546-.464-.154 1.506-.31 3.01-.464 4.546a16.498 16.498 0 0 1 4.238 0c-.155-1.536-.31-3.04-.465-4.546 1.507.154 3.011.31 4.547.464a16.495 16.495 0 0 1 0-4.237z"/><path id="pb6le" d="M1499.054 332.032c-1.535.155-3.04.31-4.546.464.155-1.506.31-3.01.464-4.546a16.494 16.494 0 0 1-4.237 0c.154 1.536.31 3.04.464 4.546-1.507-.154-3.011-.31-4.546-.464.182 1.408.182 2.83 0 4.237 1.535-.154 3.04-.309 4.546-.464-.155 1.507-.31 3.011-.464 4.546a16.5 16.5 0 0 1 4.237 0c-.154-1.535-.31-3.04-.464-4.546 1.507.155 3.01.31 4.546.464a16.496 16.496 0 0 1 0-4.237z"/><path id="pb6lf" d="M1533.685 332.032c-1.536.155-3.04.31-4.547.464.155-1.506.31-3.01.465-4.546a16.494 16.494 0 0 1-4.238 0c.155 1.536.31 3.04.464 4.546-1.506-.154-3.01-.31-4.546-.464.182 1.408.182 2.83 0 4.237 1.536-.154 3.04-.309 4.546-.464-.154 1.507-.31 3.011-.464 4.546a16.5 16.5 0 0 1 4.238 0c-.155-1.535-.31-3.04-.465-4.546 1.507.155 3.011.31 4.547.464a16.496 16.496 0 0 1 0-4.237z"/></defs><g><g transform="translate(-1480 -287)"><g><use fill="#f5f5f5" xlink:href="#pb6la"/></g><g><g><use fill="#ff4b55" xlink:href="#pb6lb"/></g><g><use fill="#ff4b55" xlink:href="#pb6lc"/></g><g><use fill="#ff4b55" xlink:href="#pb6ld"/></g><g><use fill="#ff4b55" xlink:href="#pb6le"/></g><g><use fill="#ff4b55" xlink:href="#pb6lf"/></g></g></g></g></svg>