<svg xmlns="http://www.w3.org/2000/svg" xmlns:xlink="http://www.w3.org/1999/xlink" width="50" height="50" viewBox="0 0 50 50"><defs><path id="cnbha" d="M498.825 3571.796a4.978 4.978 0 0 0 4.972-4.97 4.954 4.954 0 0 0-.94-2.897 4.964 4.964 0 0 0-4.029-2.073c-1.659 0-3.126.82-4.031 2.072a4.947 4.947 0 0 0-.94 2.897 4.973 4.973 0 0 0 4.968 4.971z"/><path id="cnbhb" d="M509.678 3560.746V3555.96l-.623.002-4.164.013.016 4.787z"/><path id="cnbhc" d="M512.945 3563.929v11.56a5.463 5.463 0 0 1-5.457 5.458h-17.324a5.462 5.462 0 0 1-5.457-5.458v-17.324a5.462 5.462 0 0 1 5.457-5.457h17.323a5.463 5.463 0 0 1 5.458 5.457zM498.826 3542c-13.689 0-24.826 11.137-24.826 24.826 0 13.688 11.137 24.826 24.826 24.826 13.688 0 24.826-11.138 24.826-24.826 0-13.689-11.136-24.826-24.826-24.826z"/><path id="cnbhd" d="M506.549 3566.826c0 4.257-3.464 7.723-7.723 7.723s-7.722-3.466-7.722-7.723a7.67 7.67 0 0 1 .568-2.897h-4.215v11.56a2.706 2.706 0 0 0 2.706 2.704h17.323a2.707 2.707 0 0 0 2.706-2.704v-11.56h-4.217c.367.894.574 1.873.574 2.897z"/></defs><g><g transform="translate(-474 -3542)"><g><g><g><use fill="#1c1c1c" xlink:href="#cnbha"/></g><g><use fill="#1c1c1c" xlink:href="#cnbhb"/></g><g><use fill="#1c1c1c" xlink:href="#cnbhc"/></g><g><use fill="#1c1c1c" xlink:href="#cnbhd"/></g></g></g></g></g></svg>