<svg xmlns="http://www.w3.org/2000/svg" xmlns:xlink="http://www.w3.org/1999/xlink" viewBox="0 0 89 89"><defs><path id="g0qqa" d="M916 76.5c0-24.577 19.923-44.5 44.5-44.5s44.5 19.923 44.5 44.5-19.923 44.5-44.5 44.5S916 101.077 916 76.5z"/><path id="g0qqc" d="M961.872 98.252h.002l-.003.003zm2.687-2.891a60.92 60.92 0 0 1 2.315 2.068 21.776 21.776 0 0 1-5 .823 61.993 61.993 0 0 0 2.685-2.891zm-.515-5.094a83.318 83.318 0 0 0-6.331-4.41l3.964-6.598 7.117 4.277a79.948 79.948 0 0 1-4.75 6.73zm-7.143 7.643a21.45 21.45 0 0 1-5.373-1.765l4.304-7.163a82.625 82.625 0 0 1 5.88 4.091 52.072 52.072 0 0 1-4.81 4.837zm9.542-33.673a82.186 82.186 0 0 1-5.485-3.752 51.648 51.648 0 0 1 4.84-4.875c1.658.386 3.266.967 4.787 1.732zm-6.017 10.014l-6.67-4.008c1.5-2.4 3.127-4.718 4.873-6.945a86.057 86.057 0 0 0 5.934 4.067zm-5.838 9.716a86.053 86.053 0 0 0-6.379-3.33 79.847 79.847 0 0 1 3.676-7.262l6.662 4.003zm-6.202 10.32a21.483 21.483 0 0 1-3.693-3.313 51.472 51.472 0 0 1 2.129-6.959 80.662 80.662 0 0 1 5.886 3.08zm-8.624-13.15c1.219.414 2.46.88 3.72 1.4a62.71 62.71 0 0 0-1.537 4.516 21.761 21.761 0 0 1-2.183-5.916zm-.466-3.985a21.467 21.467 0 0 1 2.203-10.017l7.256 4.36a83.4 83.4 0 0 0-3.881 7.666 63.342 63.342 0 0 0-5.578-2.01zm12.214-19.95a62.57 62.57 0 0 0 4.25 3.842 83.45 83.45 0 0 0-5.132 7.32l-7.25-4.356a21.475 21.475 0 0 1 8.132-6.807zm9.535-2.148c-.984.98-1.97 2.04-2.96 3.177a60.946 60.946 0 0 1-2.772-2.436c1.869-.501 3.797-.75 5.732-.741zm5.846 37.496c.8-1.017 4.978-4.627 3.725-9.147-.418-1.51-2.771-3.934-7.06-7.272l4.142-6.892 1.879-3.13 2.126-3.539a16.321 16.321 0 0 1 3.599-6.663 25.261 25.261 0 1 0-14.267 46.018c10.687-.053 12.681-7.513 9.581-5.96a63.012 63.012 0 0 0-3.725-3.415z"/><path id="g0qqd" d="M987.738 52.582l-.062-.161-.149-1.24.035-.17-.421-.172v-.195l.12-.19.125-.256-.035-.375-.256-.151-.045-.612-.314-.21-.079-.105.376-.517-.432-.285.25-.111.086-.09.186-.135.025-.17.036-.075.018-.21.059-.081-.013-.071-.173.201-.225.436-.183.2-.135.08-.156.066-.162.044-.149.017-.196.05-.428.436-.225.175-.342.074-.1.097.034.238v.004l-.007.053-.065-.053v-.004h-.004l-.142-.1-.203-.313-.066-.076-.13.013-.077.124-.065.178-.105.178-.086.284-.027.642-.06.332-.096.219-.21.365-.056.198-.346.028-.538.224-.636.162-.149-.02-.103-.135-.08-.155-.11-.13-.128-.101-.121-.053h-.139l-.417.134-.08-.007-.158-.04-.07-.004-.072.028-.124.092-.049.021-.895-.064-.013.007-.052.013.08.088-.053.04-.062.084-.049.044.046.228-.048.248-.149.42-.08.791-.069.192.138.067.022.158-.142.504-.049.11-.394.413-.103.017-.17-.03-.228-.145-.145-.033-.166.091-.089.261-.063 1.162-.258 1.053.02.189-.059.173-.065.579-.066.123-.75 3.608-.904 2.752-.156.085-.007.06.014.141-.007.06-.353 1.131-.21.323-.943 2.063-.076.102-1 1.668-.276.342-.092.221-.028.064-.4.557-.844.847-.225.392-.525.38-.23.395-.502.436-.16.201-.254.162.272.486.066.208.2.612.118.346.441 1.339.356 1.07.433 1.104.573 1.474.695 1.772.245 1.007.023.524.067.214.179.235v.003l.114.155-.004.171-.107.379-.02.222.024.144.08.117.615.524.124.181.373 1.037.664 1.86.438 1.212.03.07.019.073.007.074-.004.079.07.684.494 1.312.441 1.177.29 1.29-.023.866.078.299.26.517.1.181.08-.007.103.014.09-.005.034-.05.021-.08.048-.087.087-.134.194-.236.071-.11.05-.168.04-.342.084-.275.148-.236.107-.313.06-.703.082-.312.525-1.37.045-.255.01-.762.083-.426.045-.11.056-.098.04-.11.008-.151.132-.498.483-.698.184-.424v-.398l-.233-.77.004-.358.08-.218.107-.658.069-.158.076-.127.058-.138.024-.175-.03-.178-.16-.254-.059-.132v-.3l.198-.514.051-.303.488-1.548.66-1.298.085-.302.053-.322.038-.141.076-.155.086-.1.19-.165.066-.121.038-.282-.007-.282.03-.288.146-.286.44-.412.127-.232-.004-.396.073-.373.448-.86-.172-.03-.173-.087-.085-.154-.053-.369-.28-.43-.056-.44.125-.319.35.062.004-.008-.06-.338.139-.309.158-.268.021-.276-.008-.009-.095-.017-.101-.232-.048-.641-.09-.52.08-.463-.09-.538.065-.227.108-.208.076-.23-.007-.147-.073-.308.004-.162.05-.125.257-.398.218-.508.245-.45.341-.324.502-.124h.085l.004.002-.238-.691v-.093l.125-.162-.278-1.027.033-.104.069-.037.078-.023.053-.058.007-.104-.066-.141-.021-.106-.007-.175-.024-.134-.122-.302-.02-.595.062-.222.19-.15-.12-.157.006-.148.191-.316-.06-.08v-.072l.053-.056.09-.048v-.097l-.049-.15.197-.812h-.149l.021-.074.028-.048.045-.033.055-.03-.09-.152-.041-.244.003-.245.048-.152-.1-.19.007-.387-.058-.127v-.088h.082v.088h.07l-.018-.114-.034-.101-.045-.08-.055-.057-.027-.041-.05-.141.108-.023.047-.034-.01-.054-.068-.067v-.081h.082l-.017-.06-.018-.007-.023.004-.024-.024.151-.097-.069-.087.076-.035.073-.046v-.095l-.049-.009-.03-.016-.028-.028-.042-.027.021-.086.042-.088.07-.067.1-.03v-.081l-.104-.107-.025-.054-.079-.117h-.049l-.058.007v-.088h.151l-.03-.083-.039-.273.07.09.051-.14.028-.044.014.048.007.03.017-.007.045-.07-.062-.161-.034-.334-.067-.116v-.099h.08v-.08l-.097-.054-.045-.092.007-.105.024-.043.08-.035.1-.087.17-.219.207-.143.27.03.179-.09.373-.323.619-.379.196-.05.302-.437.563-.648.085-.328-.045-.164.132-.387.193-.321.083-.02.155-.292zm-2.519 2.036l-.065.346.003.154.062.125-.065.034-.013.054.006.074-.004.097-.393.449-.252-.033-.08-.225-.038-.249-.124-.12-.07-.044-.128-.309-.189-.275-.042-.078.073-.405.352-.37.411-.224.25.023.186.172.082.1.038.128-.013.195-.025.124-.006.107z"/><path id="g0qqe" d="M983.856 62.92l.02-.075.027-.047.044-.034.053-.03-.087-.15-.04-.243.003-.245.047-.15-.097-.19.006-.385-.056-.127v-.088h.08v.088h.067l-.017-.114-.033-.1-.882-.228-.259-.068-.258-.006-.285-.083-.06-.325.007-.397-.097-.304-.327-.2-.324-.038-.692.034-.197-.07-.312-.258-.166-.087-.194.014-.153.112-.276.322-.338.21-.326.157-.288.208-.215.37-.174.888-.081.262-.041.032-.143.053-.044.03-.044.164-.04.403-.034.169.137.043.078.094.017.137-.037.164-.08.156-.427.392-.144.186-.024.125.178.394.057.217.137 1.207.004.237-.016.285v.01l.003.007.007.007.006.006.01.04.004.046-.004.048-.01.043-.046.381.213.501.132.428-.3.168-.294.104-.087.226.104.213.359.065.17.004.078-.018.111-.067.19-.207.082-.053.157.027.57.274.758.177.189.114.083.157.02.214-.017.275-.04.068-.05.018-.058-.027-.06-.06-.674.148-.208.102-.194.158-.382.387-.879.66-.202.237-.195.378-.05.347-.003.355-.063.414-.49.819-.16.424.126.428.242.181.288.047.302-.047.278-.098.654-.09 1.365.014.638-.237 1.19-.99.63-.358.087-.007-.055-.34.064-.227.104-.207.074-.228-.007-.147-.07-.307.003-.161.05-.125.248-.396.211-.506.239-.448.331-.323.487-.124h.083l.004.002-.231-.689v-.092l.12-.161-.269-1.023.032-.104.067-.036.076-.023.051-.058.007-.104-.064-.14-.02-.106-.008-.174-.023-.134-.118-.3-.02-.593.06-.22.186-.15-.118-.157.007-.148.185-.314-.058-.08v-.071l.05-.057.088-.047v-.097l-.047-.15.191-.808zm-11.78 8.36l-.027.063-.39.555-.818.843-.218.39-.51.378-.224.394-.487.435-.155.2-.247.161.265.484.063.207.194.61v-.004l.178-.16.561-.415.385-.41.031-.218-.091-.435.003-.216.235-.445 1.238-1.18.164-.111h.004l.356-.327.023-.271-.209-.258z"/><linearGradient id="g0qqb" x1="960.5" x2="960.5" y1="32" y2="121" gradientUnits="userSpaceOnUse"><stop offset="0" stop-color="#ffbe43"/><stop offset="1" stop-color="#ffa700"/></linearGradient></defs><g><g transform="translate(-916 -32)"><g><g><g><use fill="url(#g0qqb)" xlink:href="#g0qqa"/></g><g><g><g><use fill="#fff" xlink:href="#g0qqc"/></g></g><g><g><use fill="#fff" xlink:href="#g0qqd"/></g><g><use fill="#fff" xlink:href="#g0qqe"/></g></g></g></g></g></g></g></svg>