<svg xmlns="http://www.w3.org/2000/svg" xmlns:xlink="http://www.w3.org/1999/xlink" width="47" height="49" viewBox="0 0 47 47"><defs><path id="fawwa" d="M1506.362 1462.13h.002l-.003.003zm2.347-2.524c.705.598 1.376 1.2 2.021 1.806a19.02 19.02 0 0 1-4.366.719 54.151 54.151 0 0 0 2.345-2.525zm-.45-4.45a72.77 72.77 0 0 0-5.53-3.852l3.462-5.762 6.217 3.735a69.827 69.827 0 0 1-4.149 5.88zm-6.239 6.676a18.733 18.733 0 0 1-4.692-1.542l3.758-6.256a72.17 72.17 0 0 1 5.136 3.574 45.48 45.48 0 0 1-4.2 4.224zm8.334-29.41a71.786 71.786 0 0 1-4.79-3.278 45.11 45.11 0 0 1 4.226-4.257c1.45.337 2.853.845 4.182 1.513zm-5.255 8.746l-5.825-3.5a69.644 69.644 0 0 1 4.256-6.067 75.162 75.162 0 0 0 5.182 3.553zm-5.1 8.486a75.159 75.159 0 0 0-5.57-2.908 69.738 69.738 0 0 1 3.21-6.343l5.819 3.496zm-5.416 9.014a18.764 18.764 0 0 1-3.225-2.894 44.956 44.956 0 0 1 1.86-6.078 70.453 70.453 0 0 1 5.14 2.69zm-7.532-11.486a55.27 55.27 0 0 1 3.25 1.222 54.77 54.77 0 0 0-1.343 3.945 19.007 19.007 0 0 1-1.907-5.167zm-.407-3.48a18.75 18.75 0 0 1 1.924-8.75l6.337 3.809a72.846 72.846 0 0 0-3.39 6.695 55.325 55.325 0 0 0-4.87-1.754zm10.667-17.424a54.652 54.652 0 0 0 3.712 3.355 72.885 72.885 0 0 0-4.482 6.393l-6.332-3.804a18.756 18.756 0 0 1 7.103-5.945zm8.329-1.877a53.587 53.587 0 0 0-2.586 2.775 53.23 53.23 0 0 1-2.421-2.128 19.007 19.007 0 0 1 5.007-.647zm8.36 35.731a55.036 55.036 0 0 0-3.254-2.982c.698-.887 4.347-4.041 3.253-7.988-.365-1.32-2.42-3.436-6.166-6.352l3.617-6.02 1.641-2.733 1.857-3.09a14.255 14.255 0 0 1 3.143-5.82 22.26 22.26 0 0 0-1.213-.787 22.063 22.063 0 1 0-11.248 40.978c9.335-.045 11.077-6.561 8.37-5.206z"/><path id="fawwb" d="M1528.954 1422.242l-.055-.14-.13-1.083.03-.15-.367-.15v-.169l.105-.167.109-.223-.03-.327-.224-.132-.04-.535-.274-.184-.069-.09.329-.452-.377-.25.217-.096.076-.08.162-.117.022-.149.032-.065.015-.184.052-.07-.012-.062-.15.176-.197.38-.16.175-.118.07-.136.058-.141.038-.13.015-.172.044-.374.38-.197.153-.298.065-.087.084.03.209v.003l-.007.046-.057-.046v-.003h-.003l-.124-.088-.177-.273-.058-.067-.114.011-.067.108-.057.156-.091.156-.075.248-.024.56-.052.29-.084.192-.184.319-.048.173-.303.024-.47.196-.555.141-.13-.018-.09-.117-.07-.135-.097-.114-.11-.088-.107-.047h-.12l-.366.117-.07-.006-.137-.035-.06-.003-.064.024-.108.08-.043.02-.782-.057-.011.006-.046.012.07.077-.046.034-.054.074-.043.038.04.199-.042.217-.13.367-.07.69-.06.168.12.059.02.137-.124.44-.043.098-.344.36-.09.015-.148-.027-.2-.126-.127-.03-.144.08-.078.229-.055 1.014-.226.92.018.165-.051.152-.057.505-.058.108-.655 3.15-.79 2.404-.136.074-.007.053.013.123-.006.053-.308.988-.184.281-.823 1.802-.067.09-.872 1.456-.242.299-.08.193-.025.056-.35.486-.736.74-.197.342-.458.332-.202.345-.438.38-.14.177-.221.141.238.424.057.182.174.535.103.302.386 1.17.31.934.378.964.502 1.287.606 1.548.214.88.02.457.059.187.156.205v.003l.1.136-.003.15-.094.33-.018.193.021.127.07.102.537.457.109.159.325.905.58 1.624.383 1.059.027.062.016.063.006.065-.003.069.06.598.432 1.145.385 1.028.254 1.127-.02.756.068.261.226.452.088.158.07-.006.09.012.078-.004.03-.043.019-.07.041-.077.076-.117.17-.206.062-.096.043-.146.036-.3.073-.24.129-.206.093-.273.052-.614.072-.273.459-1.196.04-.223.009-.666.071-.371.04-.097.049-.085.035-.097.006-.131.116-.435.422-.61.16-.37v-.348l-.203-.672.003-.313.07-.19.094-.575.06-.138.066-.111.051-.12.021-.153-.027-.156-.138-.222-.052-.115v-.263l.172-.448.045-.265.426-1.351.576-1.134.075-.264.046-.281.033-.123.067-.136.075-.087.166-.144.057-.106.034-.246-.007-.246.027-.252.127-.25.384-.36.111-.202-.003-.346.063-.326.392-.75-.15-.026-.151-.077-.075-.135-.046-.322-.244-.375-.049-.384.11-.28.304.054.004-.006-.052-.296.12-.27.14-.234.018-.24-.008-.008-.083-.016-.088-.201-.042-.561-.079-.454.07-.405-.078-.47.057-.198.094-.181.066-.2-.006-.13-.063-.268.003-.142.044-.109.224-.347.19-.444.215-.393.298-.284.438-.108h.075l.003.002-.208-.604v-.08l.109-.142-.243-.897.029-.09.06-.033.069-.02.045-.05.007-.092-.058-.123-.018-.093-.007-.152-.02-.118-.107-.263-.017-.52.054-.193.166-.132-.106-.137.006-.13.167-.275-.052-.07v-.063l.046-.05.078-.04v-.085l-.042-.132.172-.709h-.13l.018-.065.024-.04.04-.03.048-.027-.078-.132-.037-.213.003-.214.042-.133-.087-.166.006-.338-.051-.11v-.077h.072v.076h.06l-.015-.1-.03-.088-.04-.07-.047-.05-.024-.035-.043-.123.094-.02.042-.03-.009-.047-.06-.059v-.07h.072l-.015-.053-.016-.006-.02.004-.021-.021.132-.085-.06-.076.066-.03.064-.04v-.084l-.043-.008-.027-.014-.024-.024-.036-.023.018-.076.037-.077.06-.058.087-.027v-.07l-.09-.093-.022-.048-.069-.102h-.042l-.051.006v-.076h.132l-.027-.073-.033-.239.06.08.046-.124.024-.037.012.041.006.026.015-.006.04-.061-.055-.14-.03-.292-.058-.102v-.086h.07v-.07l-.085-.047-.04-.08.007-.092.02-.038.07-.03.088-.076.148-.191.182-.125.234.026.157-.079.326-.282.54-.33.172-.044.263-.382.492-.566.075-.287-.04-.143.116-.338.168-.28.073-.019.135-.254zm-2.2 1.779l-.058.302.003.134.054.11-.057.029-.011.047.005.065-.003.085-.343.392-.22-.029-.07-.196-.034-.218-.108-.105-.06-.038-.112-.27-.166-.24-.036-.068.063-.355.308-.322.359-.196.217.02.163.15.072.088.033.111-.011.17-.022.109-.005.094z"/><path id="fawwc" d="M1525.562 1431.27l.018-.064.024-.04.038-.03.047-.026-.076-.132-.035-.212.002-.214.041-.132-.085-.166.006-.336-.05-.11v-.077h.07v.077h.059l-.014-.1-.03-.087-.77-.2-.226-.058-.225-.006-.25-.073-.052-.283.006-.347-.085-.266-.284-.175-.284-.032-.604.029-.172-.061-.273-.225-.144-.076-.17.012-.134.098-.24.281-.296.184-.285.137-.251.181-.188.324-.152.775-.071.23-.036.027-.125.046-.038.027-.039.143-.035.352-.03.147.12.038.069.082.015.12-.032.142-.071.137-.373.342-.125.163-.021.109.155.344.05.19.12 1.054.003.207-.014.248v.01l.003.005.006.006.005.006.01.035.002.04-.003.042-.009.037-.04.334.186.437.116.374-.262.146-.257.09-.076.2.09.185.314.057.149.003.068-.016.097-.058.166-.181.07-.046.138.023.498.24.662.154.165.1.073.137.018.187-.016.24-.035.06-.043.015-.05-.023-.053-.052-.589.128-.182.09-.17.138-.333.338-.767.575-.177.207-.17.33-.043.304-.003.31-.056.361-.428.716-.14.37.11.374.212.158.251.042.265-.042.242-.085.571-.079 1.193.012.557-.207 1.04-.864.55-.313.076-.006-.049-.298.056-.197.09-.181.065-.2-.006-.128-.061-.268.003-.14.043-.11.217-.346.185-.441.208-.392.29-.282.425-.108h.072l.003.002-.201-.602v-.08l.105-.141-.235-.894.027-.09.06-.032.066-.02.044-.05.006-.091-.055-.123-.018-.093-.007-.151-.02-.117-.103-.263-.017-.517.053-.193.161-.131-.103-.137.006-.128.162-.275-.05-.07v-.062l.044-.05.075-.04v-.085l-.04-.131.167-.706zm-10.288 7.302l-.023.056-.34.485-.715.736-.191.341-.445.33-.196.344-.425.38-.136.175-.215.14.23.423.056.181.17.533v-.003l.155-.141.49-.362.336-.359.027-.19-.08-.38.003-.188.206-.389 1.08-1.031.144-.097h.003l.311-.285.02-.237-.182-.225z"/></defs><g><g transform="translate(-1483 -1421)"><g><g><use fill="#ffa700" xlink:href="#fawwa"/></g></g><g><g><use fill="#ffa700" xlink:href="#fawwb"/></g><g><use fill="#ffa700" xlink:href="#fawwc"/></g></g></g></g></svg>