<svg xmlns="http://www.w3.org/2000/svg" xmlns:xlink="http://www.w3.org/1999/xlink" width="56" height="65" viewBox="0 0 56 65"><defs><path id="q4gga" d="M647.02 1685.405v-18.017h51.244v18.017z"/><path id="q4ggb" d="M660.012 1685.405v-18.017h25.263v18.017z"/><path id="q4ggc" d="M647.02 1667.39v-2.508h51.244v2.509z"/><path id="q4ggd" d="M693.71 1623.397h-1.83l.678-2.323c.068-.231.394-.232.463-.001z"/><path id="q4gge" d="M690.455 1632.588v-5.638h4.681v5.638z"/><path id="q4ggf" d="M695.135 1626.95h-4.68v-1.56a2.34 2.34 0 1 1 4.681 0z"/><path id="q4ggg" d="M687.322 1664.88v-21.97h10.946v21.97z"/><path id="q4ggh" d="M698.268 1640.367h-10.946v-3.134a5.473 5.473 0 1 1 10.945 0z"/><path id="q4ggi" d="M698.91 1650.395h-12.23l-1.405-2.544h15.04z"/><path id="q4ggj" d="M698.91 1657.878h-12.23l-1.405-2.544h15.04z"/><path id="q4ggk" d="M690.97 1641.002h-3.648v-3.748a1.824 1.824 0 1 1 3.648 0z"/><path id="q4ggl" d="M694.62 1641.002h-3.65v-3.748a1.824 1.824 0 1 1 3.648 0v3.748z"/><path id="q4ggm" d="M698.268 1641.002h-3.649v-3.748a1.824 1.824 0 0 1 3.648 0v3.748z"/><path id="q4ggn" d="M698.91 1642.912h-12.23l-1.405-2.545h15.04z"/><path id="q4ggo" d="M653.434 1623.397h-1.829l.678-2.323c.068-.231.394-.232.463-.001z"/><path id="q4ggp" d="M650.18 1632.588v-5.638h4.681v5.638z"/><path id="q4ggq" d="M654.86 1626.95h-4.68v-1.56a2.34 2.34 0 1 1 4.681 0z"/><path id="q4ggr" d="M647.047 1664.88v-21.97h10.946v21.97z"/><path id="q4ggs" d="M657.993 1640.367h-10.946v-3.134a5.473 5.473 0 1 1 10.945 0z"/><path id="q4ggt" d="M658.634 1650.395h-12.229l-1.405-2.544h15.04z"/><path id="q4ggu" d="M658.634 1657.878h-12.229l-1.405-2.544h15.04z"/><path id="q4ggv" d="M650.696 1641.002h-3.649v-3.748a1.824 1.824 0 0 1 3.648 0z"/><path id="q4ggw" d="M654.344 1641.002h-3.648v-3.748a1.824 1.824 0 0 1 3.648 0z"/><path id="q4ggx" d="M657.993 1641.002h-3.649v-3.748a1.824 1.824 0 0 1 3.648 0z"/><path id="q4ggy" d="M658.634 1642.912h-12.229l-1.405-2.545h15.04z"/><path id="q4ggz" d="M687.408 1664.882H657.88l14.765-11.25z"/><path id="q4ggA" d="M661.927 1663.322l10.717-7.585 10.716 7.585z"/><path id="q4ggB" d="M695.11 1685.407h-6.677v-9.53a3.339 3.339 0 0 1 6.678 0v9.53z"/><path id="q4ggC" d="M656.855 1685.407h-6.678v-9.53a3.339 3.339 0 0 1 6.678 0z"/><path id="q4ggD" d="M679.107 1685.407h-12.926v-8.186a6.463 6.463 0 0 1 12.926 0z"/><path id="q4ggE" d="M668.075 1678.169a6.463 6.463 0 0 1 8.35-6.182 6.425 6.425 0 0 0-3.781-1.229 6.463 6.463 0 0 0-6.464 6.464v8.185h1.895z"/></defs><g><g transform="translate(-645 -1621)"><g><use fill="#fcd462" xlink:href="#q4gga"/></g><g><g><use fill="#f6c358" xlink:href="#q4ggb"/></g><g><use fill="#f6c358" xlink:href="#q4ggc"/></g></g><g><use fill="#31978c" xlink:href="#q4ggd"/></g><g><use fill="#f6c358" xlink:href="#q4gge"/></g><g><use fill="#44c4a1" xlink:href="#q4ggf"/></g><g><g><use fill="#fcd462" xlink:href="#q4ggg"/></g><g><use fill="#fcd462" xlink:href="#q4ggh"/></g></g><g><g><use fill="#f6c358" xlink:href="#q4ggi"/></g><g><use fill="#f6c358" xlink:href="#q4ggj"/></g></g><g><use fill="#27a2db" xlink:href="#q4ggk"/></g><g><use fill="#2d93ba" xlink:href="#q4ggl"/></g><g><use fill="#27a2db" xlink:href="#q4ggm"/></g><g><use fill="#f6c358" xlink:href="#q4ggn"/></g><g><use fill="#31978c" xlink:href="#q4ggo"/></g><g><use fill="#f6c358" xlink:href="#q4ggp"/></g><g><use fill="#44c4a1" xlink:href="#q4ggq"/></g><g><g><use fill="#fcd462" xlink:href="#q4ggr"/></g><g><use fill="#fcd462" xlink:href="#q4ggs"/></g></g><g><g><use fill="#f6c358" xlink:href="#q4ggt"/></g><g><use fill="#f6c358" xlink:href="#q4ggu"/></g></g><g><use fill="#27a2db" xlink:href="#q4ggv"/></g><g><use fill="#2d93ba" xlink:href="#q4ggw"/></g><g><use fill="#27a2db" xlink:href="#q4ggx"/></g><g><use fill="#f6c358" xlink:href="#q4ggy"/></g><g><use fill="#dc8744" xlink:href="#q4ggz"/></g><g><use fill="#f6c358" xlink:href="#q4ggA"/></g><g><g><use fill="#dc8744" xlink:href="#q4ggB"/></g><g><use fill="#dc8744" xlink:href="#q4ggC"/></g><g><use fill="#dc8744" xlink:href="#q4ggD"/></g></g><g><use fill="#64798a" xlink:href="#q4ggE"/></g></g></g></svg>