<svg xmlns="http://www.w3.org/2000/svg"><defs><symbol id="icon-youtube" viewBox="0 0 32 32"><path d="M13.385 19.785l7.05-3.655-7.05-3.678v7.333z"/><path d="M26.945 21.585c-.271 1.179-1.236 2.048-2.397 2.178-2.749.307-5.531.309-8.303.307-2.77.002-5.554 0-8.304-.307-1.16-.13-2.124-1-2.396-2.178-.386-1.68-.386-3.513-.386-5.242s.004-3.562.391-5.242c.271-1.179 1.235-2.049 2.396-2.179 2.75-.307 5.533-.308 8.304-.307 2.77-.001 5.553 0 8.302.307 1.162.13 2.126 1 2.398 2.18.386 1.679.383 3.512.383 5.241s-.001 3.562-.388 5.242zM16.246.64C7.574.64.543 7.67.543 16.343s7.03 15.703 15.703 15.703c8.672 0 15.703-7.03 15.703-15.703S24.919.64 16.246.64z"/></symbol><symbol id="icon-instagram" viewBox="0 0 32 32"><path d="M15.999 19.204a3.198 3.198 0 1 0-3.205-3.206 3.205 3.205 0 0 0 3.205 3.205zm6.995-7.122V8.998h-.401l-2.688.008.01 3.085z"/><path d="M16.001 0H16C7.163 0-.001 7.164-.001 16.001S7.163 32.002 16 32.002c8.837 0 16.001-7.164 16.001-16.001C31.991 7.169 24.834.011 16.003 0h-.001zm9.098 14.133v7.451a3.52 3.52 0 0 1-3.515 3.515H10.417a3.515 3.515 0 0 1-3.515-3.515V10.417a3.515 3.515 0 0 1 3.515-3.515h11.167a3.52 3.52 0 0 1 3.515 3.515z"/><path d="M20.977 16.001v.009a4.977 4.977 0 1 1-9.575-1.909l-.012.033H8.674v7.451a1.744 1.744 0 0 0 1.743 1.742h11.168c.963 0 1.743-.78 1.744-1.742v-7.451h-2.72c.233.552.369 1.194.369 1.867z"/></symbol><symbol id="icon-facebook" viewBox="0 0 32 32"><path d="M19.946 16.537h-2.599v9.262h-3.85v-9.263h-1.832v-3.273h1.831v-2.117c0-1.517.721-3.886 3.886-3.886l2.853.01v3.178h-2.071c-.338 0-.817.168-.817.892v1.924h2.934zM15.974 0C7.166 0 0 7.166 0 15.974c0 8.807 7.166 15.973 15.974 15.973 8.807 0 15.973-7.166 15.973-15.973C31.947 7.166 24.782 0 15.974 0z"/></symbol></defs></svg>