<svg xmlns="http://www.w3.org/2000/svg" xmlns:xlink="http://www.w3.org/1999/xlink" width="103" height="103" viewBox="0 0 103 103"><defs><path id="5fhka" d="M1498.5 867.613c-12.158 0-22.05-9.892-22.05-22.05 0-12.16 9.892-22.05 22.05-22.05 12.16 0 22.05 9.89 22.05 22.05 0 12.158-9.89 22.05-22.05 22.05zm0-46.2c-13.316 0-24.15 10.833-24.15 24.15 0 13.316 10.834 24.15 24.15 24.15 13.317 0 24.15-10.834 24.15-24.15 0-13.317-10.833-24.15-24.15-24.15z"/><path id="5fhkb" d="M1518.675 846.444a1.092 1.092 0 0 1-.87.199 1.082 1.082 0 0 1-.73-.512l-1.088-1.816a1.686 1.686 0 0 0-1.728-.802 1.692 1.692 0 0 0-1.386 1.308l-1.748 7.864a1.035 1.035 0 0 0-.025.228c0 2.727-.6 4.675-1.736 5.636-1.039.878-2.227.688-2.264.683-.136-.026-.239.084-.46-.152-.653-.698-.984-3.135-.803-5.928a1.216 1.216 0 0 0-1.216-1.29c-1.177 0-2.325-.57-3.15-1.564-1.02-1.236-2.488-2.286-3.538-2.948a3.178 3.178 0 0 1-1.147-1.264l-1.211-2.42a1.735 1.735 0 0 1-.175-.984c.257-2.148 1.418-4.916 2.14-6.477l.953 1.586c.63 1.05 1.818 1.566 3.03 1.321 1.174-.24 2.04-1.155 2.201-2.332l.022-.166a3.332 3.332 0 0 1 2.063-2.714l2.532-1.012a1.11 1.11 0 0 0 .154-.077c1.995-1.211 1.737-4.112 1.213-6.235 6.503 3.85 10.655 10.85 10.836 18.467zm-10.04-22.8a1.062 1.062 0 0 0-.303-.089l-.243-.032a1.05 1.05 0 0 0-1.108 1.446c.722 1.724 1.58 5.209.482 6.009l-2.434.973a5.437 5.437 0 0 0-3.37 4.424l-.016.12c-.058.418-.399.532-.543.561-.26.053-.608-.01-.807-.344l-1.043-1.738a2 2 0 0 0-1.826-.975 1.996 1.996 0 0 0-1.71 1.15c-.937 2.003-2.114 4.892-2.4 7.285a3.832 3.832 0 0 0 .383 2.17l1.21 2.42a5.29 5.29 0 0 0 1.906 2.1c.754.477 2.152 1.436 3.042 2.511 1.013 1.226 2.378 2.018 3.844 2.254-.059 1.966.07 5.2 1.41 6.627.468.5 1.054.773 1.704.795.118.016.325.037.593.037.779 0 2.08-.176 3.27-1.16 1.656-1.368 2.506-3.777 2.525-7.16l1.503-6.768.571.952a3.205 3.205 0 0 0 2.127 1.492 3.204 3.204 0 0 0 2.533-.58l2.296-1.722c.264-.198.42-.51.42-.84 0-9.373-5.503-17.977-14.016-21.919z"/><path id="5fhkc" d="M1493.353 866.583l-.113.394c-7.416-1.821-13.461-7.484-15.766-14.771l4.128-1.548c.266-.1.55-.065.783.097.232.16.365.415.365.697v1.58a5.639 5.639 0 0 0 3.421 5.19l3.238 1.388a6.432 6.432 0 0 1 2.02 1.367l.636.635a5.066 5.066 0 0 1 1.288 4.97zm.196-6.456l-.636-.635a8.5 8.5 0 0 0-2.676-1.813l-3.239-1.388a3.542 3.542 0 0 1-2.148-3.259v-1.58a2.95 2.95 0 0 0-3.985-2.76l-5.042 1.89a1.05 1.05 0 0 0-.645 1.255c2.363 8.802 9.662 15.637 18.594 17.41a1.051 1.051 0 0 0 1.216-.741l.384-1.346a7.167 7.167 0 0 0-1.823-7.033z"/><path id="5fhkd" d="M1486.95 830.78c0 .901-.35 1.747-.988 2.383l-3.026 3.026a3.16 3.16 0 0 0-.767 3.25c.181.542-.093 1.13-.621 1.342l-4.916 1.948a22.012 22.012 0 0 1 9.742-15.583c.376.699.576 1.48.576 2.268zm.543-5.725a1.05 1.05 0 0 0-1.354-.24c-6.934 4.14-11.328 11.413-11.753 19.453a1.05 1.05 0 0 0 1.428 1.035l6.513-2.57a3.18 3.18 0 0 0 1.834-3.956c-.129-.39-.029-.811.26-1.102l3.027-3.026a5.43 5.43 0 0 0 1.602-3.868v-1.366a6.947 6.947 0 0 0-1.557-4.36z"/><path id="5fhke" d="M1498.5 813.012c-1.085 0-2.18.056-3.255.166a1.05 1.05 0 0 0 .215 2.088 30.2 30.2 0 0 1 3.04-.154 1.05 1.05 0 0 0 0-2.1z"/><path id="5fhkf" d="M1469.514 849.454a29.733 29.733 0 0 1-.395-5.992 1.05 1.05 0 0 0-1.013-1.085c-.575-.03-1.065.433-1.086 1.013a31.91 31.91 0 0 0 .422 6.414 1.05 1.05 0 0 0 2.072-.35z"/><path id="5fhkg" d="M1473.87 860.571a29.366 29.366 0 0 1-2.753-5.334 1.05 1.05 0 0 0-1.955.767 31.508 31.508 0 0 0 2.948 5.715 1.048 1.048 0 0 0 1.455.305 1.05 1.05 0 0 0 .304-1.453z"/><path id="5fhkh" d="M1471.456 830.465a1.051 1.051 0 0 0-1.4.496 31.315 31.315 0 0 0-2.16 6.06 1.05 1.05 0 1 0 2.04.497 29.235 29.235 0 0 1 2.016-5.653 1.05 1.05 0 0 0-.496-1.4z"/><path id="5fhki" d="M1479.277 820.873a1.05 1.05 0 0 0-1.482-.1 31.794 31.794 0 0 0-4.39 4.698 1.05 1.05 0 1 0 1.672 1.27 29.592 29.592 0 0 1 4.099-4.386 1.05 1.05 0 0 0 .1-1.482z"/><path id="5fhkj" d="M1493.377 873.47a29.315 29.315 0 0 1-5.772-1.64 1.05 1.05 0 1 0-.779 1.95 31.334 31.334 0 0 0 6.187 1.757 1.052 1.052 0 0 0 1.217-.851 1.05 1.05 0 0 0-.853-1.216z"/><path id="5fhkk" d="M1506.582 873.898a1.052 1.052 0 0 0-1.264-.78c-1.94.462-3.943.725-5.952.783a1.05 1.05 0 0 0 .029 2.099l.031-.001a31.594 31.594 0 0 0 6.377-.837c.564-.134.913-.7.78-1.264z"/><path id="5fhkl" d="M1490.26 815.17a1.051 1.051 0 0 0-1.318-.682 31.384 31.384 0 0 0-5.898 2.57 1.051 1.051 0 0 0 1.032 1.83 29.221 29.221 0 0 1 5.502-2.398 1.05 1.05 0 0 0 .683-1.32z"/><path id="5fhkm" d="M1482.288 869.042a29.585 29.585 0 0 1-4.642-3.807 1.05 1.05 0 1 0-1.489 1.482 31.78 31.78 0 0 0 4.972 4.077 1.05 1.05 0 1 0 1.16-1.752z"/><path id="5fhkn" d="M1515.15 870.033a1.05 1.05 0 0 0-1.443-.354 29.503 29.503 0 0 1-2.678 1.437 1.05 1.05 0 1 0 .897 1.9c.98-.462 1.944-.98 2.87-1.54.495-.302.654-.948.353-1.443z"/><path id="5fhko" d="M1529.78 859.618a1.05 1.05 0 0 0-1.474-.185l-9.45 7.35c-.255.2-.405.505-.405.83v3.15a1.05 1.05 0 0 0 2.1 0v-2.637l9.043-7.035a1.05 1.05 0 0 0 .185-1.473z"/><path id="5fhkp" d="M1519.833 866.616l-3.15-1.05a1.05 1.05 0 1 0-.665 1.992l3.15 1.05a1.05 1.05 0 1 0 .665-1.992z"/><path id="5fhkq" d="M1527.825 868.271l-2.1-5.25a1.049 1.049 0 0 0-.435-.51l-5.25-3.15a1.05 1.05 0 1 0-1.08 1.8l4.946 2.969 1.97 4.922a1.051 1.051 0 1 0 1.949-.781z"/></defs><g><g transform="translate(-1447 -793)"><g><g><g><use fill="#ffa700" xlink:href="#5fhka"/><use fill="#fff" fill-opacity="0" stroke="#ffa700" stroke-miterlimit="50" stroke-width="2" xlink:href="#5fhka"/></g></g></g><g><g><g><use fill="#ffa700" xlink:href="#5fhkb"/><use fill="#fff" fill-opacity="0" stroke="#ffa700" stroke-miterlimit="50" stroke-width="2" xlink:href="#5fhkb"/></g></g></g><g><g><g><use fill="#ffa700" xlink:href="#5fhkc"/><use fill="#fff" fill-opacity="0" stroke="#ffa700" stroke-miterlimit="50" stroke-width="2" xlink:href="#5fhkc"/></g></g></g><g><g><g><use fill="#ffa700" xlink:href="#5fhkd"/><use fill="#fff" fill-opacity="0" stroke="#ffa700" stroke-miterlimit="50" stroke-width="2" xlink:href="#5fhkd"/></g></g></g><g><g><g><use fill="#ffa700" xlink:href="#5fhke"/><use fill="#fff" fill-opacity="0" stroke="#ffa700" stroke-miterlimit="50" stroke-width="2" xlink:href="#5fhke"/></g></g></g><g><g><g><use fill="#ffa700" xlink:href="#5fhkf"/><use fill="#fff" fill-opacity="0" stroke="#ffa700" stroke-miterlimit="50" stroke-width="2" xlink:href="#5fhkf"/></g></g></g><g><g><g><use fill="#ffa700" xlink:href="#5fhkg"/><use fill="#fff" fill-opacity="0" stroke="#ffa700" stroke-miterlimit="50" stroke-width="2" xlink:href="#5fhkg"/></g></g></g><g><g><g><use fill="#ffa700" xlink:href="#5fhkh"/><use fill="#fff" fill-opacity="0" stroke="#ffa700" stroke-miterlimit="50" stroke-width="2" xlink:href="#5fhkh"/></g></g></g><g><g><g><use fill="#ffa700" xlink:href="#5fhki"/><use fill="#fff" fill-opacity="0" stroke="#ffa700" stroke-miterlimit="50" stroke-width="2" xlink:href="#5fhki"/></g></g></g><g><g><g><use fill="#ffa700" xlink:href="#5fhkj"/><use fill="#fff" fill-opacity="0" stroke="#ffa700" stroke-miterlimit="50" stroke-width="2" xlink:href="#5fhkj"/></g></g></g><g><g><g><use fill="#ffa700" xlink:href="#5fhkk"/><use fill="#fff" fill-opacity="0" stroke="#ffa700" stroke-miterlimit="50" stroke-width="2" xlink:href="#5fhkk"/></g></g></g><g><g><g><use fill="#ffa700" xlink:href="#5fhkl"/><use fill="#fff" fill-opacity="0" stroke="#ffa700" stroke-miterlimit="50" stroke-width="2" xlink:href="#5fhkl"/></g></g></g><g><g><g><use fill="#ffa700" xlink:href="#5fhkm"/><use fill="#fff" fill-opacity="0" stroke="#ffa700" stroke-miterlimit="50" stroke-width="2" xlink:href="#5fhkm"/></g></g></g><g><g><g><use fill="#ffa700" xlink:href="#5fhkn"/><use fill="#fff" fill-opacity="0" stroke="#ffa700" stroke-miterlimit="50" stroke-width="2" xlink:href="#5fhkn"/></g></g></g><g><g><g><use fill="#ffa700" xlink:href="#5fhko"/><use fill="#fff" fill-opacity="0" stroke="#ffa700" stroke-miterlimit="50" stroke-width="2" xlink:href="#5fhko"/></g></g></g><g><g><g><use fill="#ffa700" xlink:href="#5fhkp"/><use fill="#fff" fill-opacity="0" stroke="#ffa700" stroke-miterlimit="50" stroke-width="2" xlink:href="#5fhkp"/></g></g></g><g><g><g><use fill="#ffa700" xlink:href="#5fhkq"/><use fill="#fff" fill-opacity="0" stroke="#ffa700" stroke-miterlimit="50" stroke-width="2" xlink:href="#5fhkq"/></g></g></g></g></g></svg>