<svg xmlns="http://www.w3.org/2000/svg" xmlns:xlink="http://www.w3.org/1999/xlink" width="37" height="37" viewBox="0 0 37 37"><defs><path id="4dsla" d="M1030.27 1159.794h1.532v-3.385a.768.768 0 0 0-.766-.767.768.768 0 0 0-.765.767v3.385zm2.256 1.449h-2.98a.724.724 0 0 1-.724-.724v-4.11c0-1.222.993-2.216 2.214-2.216s2.214.994 2.214 2.216v4.11c0 .4-.324.724-.724.724z"/><path id="4dslb" d="M1005.282 1159.794h1.531v-3.385a.768.768 0 0 0-.766-.767.768.768 0 0 0-.765.767zm2.255 1.449h-2.98a.724.724 0 0 1-.724-.724v-4.11c0-1.222.993-2.216 2.214-2.216s2.214.994 2.214 2.216v4.11c0 .4-.324.724-.724.724z"/><path id="4dslc" d="M1016.941 1151.462h3.201v-5.204c0-.884-.718-1.603-1.6-1.603-.883 0-1.6.719-1.6 1.603zm3.925 1.449h-4.65a.725.725 0 0 1-.723-.724v-5.93a3.054 3.054 0 0 1 3.049-3.051c1.681 0 3.049 1.37 3.049 3.052v5.929c0 .4-.325.724-.725.724z"/><path id="4dsld" d="M1023.843 1155.512a.731.731 0 0 1-.602-.322.716.716 0 0 1-.122-.402.733.733 0 0 1 .322-.603.735.735 0 0 1 .679-.065.713.713 0 0 1 .432.526.708.708 0 0 1-.107.544.688.688 0 0 1-.2.2.717.717 0 0 1-.402.122z"/><path id="4dsle" d="M1035.635 1152.313l-8.523-3.103v-1.932l8.523 3.103zm0 12.578h-34.186v-1.507h34.186zm-25.664-14.14v11.185h-7.81v-8.34l6.175-2.249zm-8.522-.37l8.522-3.103v1.932l-8.522 3.103zm18.693 9.15v2.405h-3.2v-2.406c0-.884.717-1.603 1.6-1.603.882 0 1.6.72 1.6 1.603zm-1.6-3.052a3.054 3.054 0 0 0-3.05 3.051v2.406h-4.072v-6.424h9.448a.724.724 0 1 0 0-1.448h-9.448v-8.2l7.122-5.238 7.122 5.238v16.072h-4.073v-2.406a3.054 3.054 0 0 0-3.05-3.052zm-8.382-13.339l8.382-6.165 8.381 6.165v1.853l-7.952-5.85a.725.725 0 0 0-.859 0l-7.952 5.85zm16.952 7.612l1.636.595 6.174 2.248v8.34h-7.81zm9.662 3.189a.724.724 0 0 0 .31-.593v-3.474a.724.724 0 0 0-.477-.68l-8.235-2.999v-3.421c0-.23-.11-.447-.295-.584l-8.811-6.48v-2.066h1.342a.724.724 0 0 0 0-1.449h-1.342v-1.246a.724.724 0 1 0-1.449 0v1.246h-1.342a.725.725 0 0 0 0 1.449h1.342v2.066l-8.81 6.48a.724.724 0 0 0-.296.584v3.421l-8.235 2.999a.725.725 0 0 0-.476.68v3.474a.724.724 0 0 0 .713.724v7.864a.724.724 0 0 0-.713.724v2.955c0 .4.324.724.724.724h35.635c.4 0 .724-.324.724-.724v-2.955a.724.724 0 0 0-.713-.724v-7.864a.724.724 0 0 0 .404-.131z"/></defs><g><g transform="translate(-1000 -1130)"><g><use fill="#ffa700" xlink:href="#4dsla"/></g><g><use fill="#ffa700" xlink:href="#4dslb"/></g><g><use fill="#ffa700" xlink:href="#4dslc"/></g><g><use fill="#ffa700" xlink:href="#4dsld"/></g><g><use fill="#ffa700" xlink:href="#4dsle"/></g></g></g></svg>