<svg xmlns="http://www.w3.org/2000/svg" xmlns:xlink="http://www.w3.org/1999/xlink" width="17" height="20" viewBox="0 0 17 20"><defs><path id="si7wa" d="M673.415 1601.919c-.199 0-.371.072-.517.218a.706.706 0 0 0-.218.517v4.777a.707.707 0 0 1-.218.517.707.707 0 0 1-.517.218.706.706 0 0 1-.517-.218.706.706 0 0 1-.218-.517v-4.777a.706.706 0 0 0-.218-.517.707.707 0 0 0-.517-.218.707.707 0 0 0-.517.218.706.706 0 0 0-.218.517v4.777a.706.706 0 0 1-.218.517.706.706 0 0 1-.517.218.706.706 0 0 1-.517-.218.706.706 0 0 1-.218-.517v-4.777a.706.706 0 0 0-.219-.517.706.706 0 0 0-.516-.218c-.2 0-.372.072-.517.218a.706.706 0 0 0-.218.517v7.35c0 .466.135.891.407 1.274.272.383.626.651 1.063.804v8.946c0 .398.145.743.436 1.034.291.29.636.436 1.034.436h1.47c.398 0 .742-.145 1.033-.436.291-.291.437-.636.437-1.034v-8.946c.436-.153.79-.421 1.062-.804a2.15 2.15 0 0 0 .408-1.275v-7.35a.707.707 0 0 0-.218-.516.706.706 0 0 0-.517-.218z"/><path id="si7wb" d="M682.751 1602.137a.707.707 0 0 0-.516-.219h-2.94c-1.01 0-1.876.36-2.595 1.08-.72.72-1.08 1.585-1.08 2.596v9.187c0 .1.036.185.109.258a.354.354 0 0 0 .258.11h2.573v5.88c0 .398.145.742.436 1.033.291.29.636.436 1.034.436h1.47c.398 0 .742-.145 1.033-.436.291-.291.437-.635.437-1.034v-18.375a.708.708 0 0 0-.219-.516z"/></defs><g><g transform="translate(-666 -1603)"><g><g><use fill="#fff" xlink:href="#si7wa"/></g><g><use fill="#fff" xlink:href="#si7wb"/></g></g></g></g></svg>