<svg xmlns="http://www.w3.org/2000/svg" xmlns:xlink="http://www.w3.org/1999/xlink" width="4" height="3" viewBox="0 0 4 3"><defs><path id="im3ka" d="M669.638 1724.522h-.285l-.532 2.661h1.35z"/><path id="im3kb" d="M680.401 1729.844c.288.772.67 1.397 1.093 1.928.423-.531.849-1.156 1.136-1.928z"/><path id="im3kc" d="M684.2 1729.844h-.178a8.442 8.442 0 0 1-1.603 2.915c.489.446 1.011.813 1.53 1.223a.665.665 0 1 1-.83 1.039c-.565-.446-1.095-.819-1.625-1.305-.53.486-1.016.86-1.58 1.305a.665.665 0 1 1-.832-1.039c.52-.41.998-.777 1.487-1.223-.624-.75-1.18-1.7-1.559-2.915h-.178a.665.665 0 1 1 0-1.33h1.996v-.666a.665.665 0 1 1 1.331 0v.666h2.04a.665.665 0 1 1 0 1.33zm0-7.362h-8.263l1.723 13.824c.03.565-.124 1.098-.493 1.514l-2.918 3.335h9.95c1.101 0 1.996-.896 1.996-1.996v-14.637c0-1.1-.895-2.04-1.996-2.04z"/><path id="im3kd" d="M671.645 1731.162a.665.665 0 0 1-.783-.522l-.426-2.126h-1.88l-.426 2.126a.665.665 0 0 1-1.305-.261l1.331-6.653a.666.666 0 0 1 .652-.535h1.375c.317 0 .59.224.653.535l1.33 6.653a.665.665 0 0 1-.521.783zm2.67-10.968a1.999 1.999 0 0 0-1.98-1.749h-6.853c-1.1 0-1.996.896-1.996 1.996v14.726c0 1.1.895 1.996 1.996 1.996h10.492c.194-.222.357-.36.364-.65a8446.86 8446.86 0 0 0-2.022-16.32z"/><path id="im3ke" d="M671.26 1738.494l.114.912a2.012 2.012 0 0 0 1.15 1.546l2.234-2.458z"/></defs><g><g transform="translate(-671 -1738)"><g><g><g><use fill="#fff" xlink:href="#im3ka"/></g></g></g><g><g><g><use fill="#fff" xlink:href="#im3kb"/></g></g></g><g><g><g><use fill="#fff" xlink:href="#im3kc"/></g></g></g><g><g><g><use fill="#fff" xlink:href="#im3kd"/></g></g></g><g><g><g><use fill="#fff" xlink:href="#im3ke"/></g></g></g></g></g></svg>