<svg xmlns="http://www.w3.org/2000/svg" xmlns:xlink="http://www.w3.org/1999/xlink" width="37" height="37" viewBox="0 0 37 37"><defs><path id="mut1a" d="M1188.744 1160.457l.099-1.197h2.842a.599.599 0 0 0 0-1.197h-2.744l.148-1.795h3.194a.599.599 0 0 0 0-1.197h-3.095l.197-2.394h5.292a.599.599 0 0 0 0-1.197h-5.194l.198-2.394h3.2a.599.599 0 0 0 0-1.197h-3.101l.148-1.796h7.105l1.184 14.364zm-.65-16.16c0-.33.268-.598.598-.598h9.576a.599.599 0 0 1 0 1.197h-9.576a.599.599 0 0 1-.598-.598zm1.795-7.78h1.197v5.985h-1.197zm3.591-4.788a4.19 4.19 0 0 1 4.142 3.591h-8.283a4.19 4.19 0 0 1 4.141-3.591zm-1.197 10.773v-5.985h2.394v5.985zm4.788 0h-1.197v-5.985h1.197zm13.168 22.744a1.796 1.796 0 0 1-1.796-1.796.599.599 0 0 0-1.197 0 1.796 1.796 0 0 1-3.59 0 2.996 2.996 0 0 0-2.993-2.993h-1.245l-.249-3.023a2.373 2.373 0 0 0 1.494-.796 2.362 2.362 0 0 0 3.59 0c.45.523 1.106.825 1.796.827a.599.599 0 0 0 0-1.197 1.197 1.197 0 0 1-1.197-1.197.599.599 0 0 0-1.197 0 1.197 1.197 0 0 1-2.394 0 .599.599 0 0 0-1.197 0 1.197 1.197 0 0 1-.992 1.176l-.837-10.154h.033a1.796 1.796 0 0 0 0-3.59v-5.986h1.198a.599.599 0 0 0 0-1.197h-.634a5.387 5.387 0 0 0-10.703 0h-.634a.599.599 0 0 0 0 1.197h1.197v5.985a1.796 1.796 0 0 0 0 3.591h.034l-.838 10.154c-.572-.1-.99-.596-.991-1.176a.599.599 0 0 0-1.197 0 1.197 1.197 0 0 1-2.394 0 .599.599 0 0 0-1.197 0 2.384 2.384 0 0 0 4.19 1.567c.383.44.916.724 1.496.796l-.252 3.023h-1.245a2.996 2.996 0 0 0-2.992 2.993c0 .992-.804 1.796-1.796 1.796a.599.599 0 0 0 0 1.197 2.982 2.982 0 0 0 2.394-1.216 2.978 2.978 0 0 0 4.788.019 2.992 2.992 0 0 0 5.387-1.796.599.599 0 0 0-1.197 0 1.796 1.796 0 0 1-3.591 0 .599.599 0 0 0-1.197 0 1.796 1.796 0 1 1-1.796-1.796h14.365a1.796 1.796 0 1 1-1.796 1.796.599.599 0 0 0-1.197 0c0 .992-.804 1.796-1.796 1.796a.599.599 0 0 0 0 1.197c.942 0 1.83-.444 2.395-1.197a2.978 2.978 0 0 0 4.788-.017 2.978 2.978 0 0 0 4.788.017 2.993 2.993 0 0 0 2.394 1.197.599.599 0 0 0 0-1.197z"/><path id="mut1b" d="M1179.116 1162.851a.599.599 0 0 0-.598.599c0 .992-.804 1.796-1.796 1.796a.599.599 0 0 0 0 1.197 2.996 2.996 0 0 0 2.993-2.993.599.599 0 0 0-.599-.599z"/><path id="mut1c" d="M1179.715 1155.07a.599.599 0 0 0-1.197 0 2.394 2.394 0 0 0 2.394 2.395.599.599 0 0 0 0-1.197 1.197 1.197 0 0 1-1.197-1.197z"/><path id="mut1d" d="M1177.93 1132.268a4.794 4.794 0 0 0 5.526 4.42 3.591 3.591 0 1 1-5.527-4.42zm2.383 7.472a4.799 4.799 0 0 0 4.694-3.842.599.599 0 0 0-.832-.664 3.564 3.564 0 0 1-1.468.316 3.595 3.595 0 0 1-3.52-4.3.598.598 0 0 0-.832-.663 4.788 4.788 0 0 0 1.958 9.153z"/><path id="mut1e" d="M1195.874 1155.07h-.598a.599.599 0 0 0 0 1.198h.598a.599.599 0 0 0 0-1.197z"/><path id="mut1f" d="M1201.86 1137.116a.603.603 0 0 0 .222-.043l8.977-3.591a.598.598 0 1 0-.444-1.112l-8.978 3.59a.599.599 0 0 0 .223 1.156z"/><path id="mut1g" d="M1211.06 1145.538l-8.978-3.591a.6.6 0 0 0-.445 1.112l8.978 3.59a.598.598 0 1 0 .444-1.111z"/><path id="mut1h" d="M1201.86 1138.911a.599.599 0 0 0 0 1.197h6.583a.599.599 0 0 0 0-1.197z"/><path id="mut1i" d="M1180.102 1143.737a.598.598 0 1 0 .422 1.121l4.788-1.795a.599.599 0 0 0-.42-1.122z"/><path id="mut1j" d="M1195.874 1148.488a.598.598 0 1 1-1.197 0 .598.598 0 0 1 1.197 0z"/><path id="mut1k" d="M1195.276 1158.663a.599.599 0 1 1-1.197 0 .599.599 0 0 1 1.197 0z"/></defs><g><g transform="translate(-1175 -1130)"><g><use fill="#ffa700" xlink:href="#mut1a"/></g><g><use fill="#ffa700" xlink:href="#mut1b"/></g><g><use fill="#ffa700" xlink:href="#mut1c"/></g><g><use fill="#ffa700" xlink:href="#mut1d"/></g><g><use fill="#ffa700" xlink:href="#mut1e"/></g><g><use fill="#ffa700" xlink:href="#mut1f"/></g><g><use fill="#ffa700" xlink:href="#mut1g"/></g><g><use fill="#ffa700" xlink:href="#mut1h"/></g><g><use fill="#ffa700" xlink:href="#mut1i"/></g><g><use fill="#ffa700" xlink:href="#mut1j"/></g><g><use fill="#ffa700" xlink:href="#mut1k"/></g></g></g></svg>