<svg xmlns="http://www.w3.org/2000/svg" xmlns:xlink="http://www.w3.org/1999/xlink" width="23" height="24" viewBox="0 0 23 24"><defs><path id="6sova" d="M667.148 1781.83a.584.584 0 0 0 .819-.11 8.953 8.953 0 0 1 7.168-3.552 8.953 8.953 0 0 1 7.169 3.551.583.583 0 1 0 .928-.708 10.113 10.113 0 0 0-8.097-4.011c-3.2 0-6.151 1.462-8.097 4.01a.584.584 0 0 0 .11.82z"/><path id="6sovb" d="M681.343 1784.945c0 1.005.819 1.824 1.824 1.824a1.826 1.826 0 0 0 1.824-1.824 1.826 1.826 0 0 0-1.824-1.824 1.826 1.826 0 0 0-1.824 1.824z"/><path id="6sovc" d="M685.034 1787.374l-.464-.142a.546.546 0 0 0-.486.084l-.917.686-.916-.686a.545.545 0 0 0-.487-.084s-.46.14-.463.142a1.806 1.806 0 0 0-1.237 1.715v2.758c0 .106.031.21.09.3l.925 1.406v3.696c0 .301.244.545.545.545h3.087a.545.545 0 0 0 .545-.545v-3.696l.925-1.407a.545.545 0 0 0 .09-.3v-2.757c0-.78-.498-1.468-1.237-1.715z"/><path id="6sovd" d="M667.103 1786.769a1.826 1.826 0 0 0 1.824-1.824 1.826 1.826 0 0 0-1.824-1.824 1.826 1.826 0 0 0-1.824 1.824c0 1.005.818 1.824 1.824 1.824z"/><path id="6sove" d="M668.97 1787.374l-.464-.142a.546.546 0 0 0-.486.084l-.917.686-.916-.686a.545.545 0 0 0-.487-.084l-.464.142a1.806 1.806 0 0 0-1.236 1.715v2.758c0 .106.031.21.09.3l.924 1.406v3.696c0 .301.244.545.546.545h3.087a.545.545 0 0 0 .545-.545v-3.696l.924-1.407a.545.545 0 0 0 .09-.3v-2.757c0-.78-.497-1.468-1.236-1.715z"/><path id="6sovf" d="M677.488 1782.374a2.355 2.355 0 0 0-2.353-2.353 2.355 2.355 0 0 0-2.352 2.353 2.355 2.355 0 0 0 2.352 2.353 2.355 2.355 0 0 0 2.353-2.353z"/><path id="6sovg" d="M677.72 1785.867l-.005-.001-.671-.206a.209.209 0 0 0-.257.128l-1.412 3.874a.255.255 0 0 1-.48 0l-1.411-3.874a.209.209 0 0 0-.196-.138c-.02 0-.732.215-.732.215a2.084 2.084 0 0 0-1.431 1.98v4.099c0 .04.012.08.034.114l1.474 2.242v5.673c0 .115.093.209.208.209h4.588a.209.209 0 0 0 .209-.209v-5.673l1.473-2.242a.209.209 0 0 0 .034-.114v-4.11a2.07 2.07 0 0 0-1.426-1.967z"/><path id="6sovh" d="M675.687 1785.785a.31.31 0 0 0-.23-.095h-.644a.31.31 0 0 0-.23.095.299.299 0 0 0-.039.352l.344.518-.16 1.359.316.844c.031.084.151.084.182 0l.317-.844-.16-1.359.343-.518a.298.298 0 0 0-.04-.352z"/></defs><g><g transform="translate(-664 -1777)"><g><use fill="#fff" xlink:href="#6sova"/></g><g><use fill="#fff" xlink:href="#6sovb"/></g><g><use fill="#fff" xlink:href="#6sovc"/></g><g><use fill="#fff" xlink:href="#6sovd"/></g><g><use fill="#fff" xlink:href="#6sove"/></g><g><use fill="#fff" xlink:href="#6sovf"/></g><g><use fill="#fff" xlink:href="#6sovg"/></g><g><use fill="#fff" xlink:href="#6sovh"/></g></g></g></svg>