<svg xmlns="http://www.w3.org/2000/svg" xmlns:xlink="http://www.w3.org/1999/xlink" width="78" height="64" viewBox="0 0 78 64"><defs><path id="8mboa" d="M487.565 1449.27c-12.948 2.346-16.648 6.492-17.54 9.415-.512 1.652.016 3.419 1.255 4.625 1.883 1.833 5.93 5.07 11.875 6.309 4.955 1.024 1.124 3.088-2.94 4.624a54.413 54.413 0 0 1-8.803 2.461c-11.561 2.23-52.323 11.364-22.412 24.329.132.05.28.082.413.082h58.781c1.024 0 1.42-1.32.578-1.882-4.971-3.337-12.437-10.786 1.668-19.54 17.722-11-15.624-18.052-21.9-18.96-1.322-.198-2.61-.595-3.766-1.272-2.89-1.7-5.302-5.17 6.788-10.174h-3.997z"/><path id="8mbob" d="M458.58 1475.845c-2.528 4.328-4.279 9.068-5.27 12.156-.313.958-1.651.958-1.965 0-.991-3.072-2.742-7.812-5.269-12.156-2.725-4.69.1-10.867 5.517-11.297.248-.016.479-.033.726-.033.248 0 .48.017.727.033 5.434.43 8.275 6.607 5.533 11.297z"/><path id="8mboc" d="M447.183 1471.733a5.153 5.153 0 1 1 10.306 0 5.153 5.153 0 0 1-10.306 0z"/><path id="8mbod" d="M510.143 1458.867c-2.527 4.327-4.278 9.067-5.269 12.156-.313.958-1.651.958-1.965 0-.991-3.072-2.742-7.813-5.269-12.156-2.725-4.691.1-10.868 5.517-11.297.247-.017.479-.034.726-.034.248 0 .48.017.727.034 5.434.429 8.275 6.59 5.533 11.297z"/><path id="8mboe" d="M498.747 1454.738a5.153 5.153 0 1 1 10.306 0 5.153 5.153 0 0 1-10.306 0z"/><path id="8mbof" d="M481.405 1447.272c-2.313 3.964-3.915 8.291-4.823 11.116-.28.875-1.503.875-1.8 0-.909-2.825-2.51-7.152-4.823-11.116-2.494-4.294.099-9.943 5.054-10.339a8.84 8.84 0 0 1 .66-.033c.215 0 .446.016.661.033 4.972.396 7.565 6.045 5.07 10.34z"/><path id="8mbog" d="M470.95 1443.507a4.724 4.724 0 1 1 9.447 0 4.724 4.724 0 0 1-9.447 0z"/><path id="8mboh" d="M497.194 1480.57l-1.982-1.256c1.768-1.156 2.626-2.378 2.676-3.584.083-1.85-1.701-3.452-2.296-3.881l.892-.71c.1.065 2.957 1.833 3.105 4.607.083 1.9-.082 2.94-2.395 4.823z"/><path id="8mboi" d="M490.522 1468.76c-.694-.198-5.897-1.8-6.673-3.65l1.354-.727c.496.842 4.51 2.66 6.442 3.122z"/><path id="8mboj" d="M476.103 1490.859l.33-1.883c8.044.05 12.586-4.905 12.619-4.955l1.437.892c-.182.215-5.005 5.962-14.386 5.946z"/></defs><g><g transform="translate(-438 -1437)"><g><use fill="#3a556a" xlink:href="#8mboa"/></g><g><use fill="#44c4a1" xlink:href="#8mbob"/></g><g><use fill="#ebf0f3" xlink:href="#8mboc"/></g><g><use fill="#27a2db" xlink:href="#8mbod"/></g><g><use fill="#ebf0f3" xlink:href="#8mboe"/></g><g><use fill="#e56353" xlink:href="#8mbof"/></g><g><use fill="#ebf0f3" xlink:href="#8mbog"/></g><g><g><use fill="#d5d6db" xlink:href="#8mboh"/></g><g><use fill="#d5d6db" xlink:href="#8mboi"/></g><g><use fill="#d5d6db" xlink:href="#8mboj"/></g></g></g></g></svg>