<svg xmlns="http://www.w3.org/2000/svg" xmlns:xlink="http://www.w3.org/1999/xlink" width="27" height="27" viewBox="0 0 27 27"><defs><path id="gyn2a" d="M67.38 664.842a7.055 7.055 0 1 1 0-14.11 7.055 7.055 0 0 1 0 14.11zm14.825 4.665l-5.706-5.706c-.03-.03-.066-.052-.098-.08a10.745 10.745 0 0 0 1.778-5.934c0-5.964-4.834-10.8-10.798-10.8s-10.799 4.836-10.799 10.8c0 5.963 4.835 10.798 10.799 10.798 2.192 0 4.23-.655 5.934-1.778.028.032.05.067.08.097l5.706 5.707a2.195 2.195 0 0 0 3.104-3.104z"/></defs><g><g transform="translate(-56 -647)"><g><use fill="#fff" xlink:href="#gyn2a"/></g></g></g></svg>