<svg version="1.1" xmlns="http://www.w3.org/2000/svg" xmlns:xlink="http://www.w3.org/1999/xlink">
<defs>
<symbol id="icon-youtube" width="32" height="32" viewBox="0 0 32 32">
<title>youtube</title>
<path d="M13.385 19.785l7.050-3.655-7.050-3.678v7.333z"></path>
<path d="M26.945 21.585c-0.271 1.179-1.236 2.048-2.397 2.178-2.749 0.307-5.531 0.309-8.303 0.307-2.77 0.002-5.554 0-8.304-0.307-1.16-0.13-2.124-1-2.396-2.178-0.386-1.68-0.386-3.513-0.386-5.242s0.004-3.562 0.391-5.242c0.271-1.179 1.235-2.049 2.396-2.179 2.75-0.307 5.533-0.308 8.304-0.307 2.77-0.001 5.553 0 8.302 0.307 1.162 0.13 2.126 1 2.398 2.18 0.386 1.679 0.383 3.512 0.383 5.241s-0.001 3.562-0.388 5.242zM16.246 0.64c-8.672 0-15.703 7.030-15.703 15.703s7.030 15.703 15.703 15.703c8.672 0 15.703-7.030 15.703-15.703s-7.030-15.703-15.703-15.703z"></path>
</symbol>
<symbol id="icon-instagram" width="32" height="32" viewBox="0 0 32 32">
<title>instagram</title>
<path d="M15.999 19.204c1.763-0.004 3.191-1.434 3.191-3.198 0-1.766-1.432-3.198-3.198-3.198-1.764 0-3.194 1.428-3.198 3.19v0c0 1.77 1.435 3.205 3.205 3.205v0z"></path>
<path d="M22.994 12.082v-3.084h-0.401l-2.688 0.008 0.010 3.085z"></path>
<path d="M16.001 0c-0 0-0.001 0-0.001 0-8.837 0-16.001 7.164-16.001 16.001s7.164 16.001 16.001 16.001c8.837 0 16.001-7.164 16.001-16.001v0c-0.010-8.832-7.167-15.99-15.998-16.001h-0.001zM25.099 14.133v7.451c-0.003 1.94-1.575 3.513-3.515 3.515h-11.167c-1.942 0-3.515-1.574-3.515-3.515v0-11.167c0-1.942 1.574-3.515 3.515-3.515v0h11.167c1.94 0.003 3.513 1.575 3.515 3.515v0z"></path>
<path d="M20.977 16.001c0 0.003 0 0.006 0 0.009 0 2.749-2.229 4.977-4.977 4.977s-4.977-2.229-4.977-4.977c0-0.676 0.135-1.321 0.379-1.909l-0.012 0.033h-2.716v7.451c0.001 0.962 0.781 1.742 1.743 1.742 0 0 0.001 0 0.001 0h11.167c0.963 0 1.743-0.78 1.744-1.742v-7.451h-2.72c0.233 0.552 0.369 1.194 0.369 1.867v0z"></path>
</symbol>
<symbol id="icon-facebook" width="32" height="32" viewBox="0 0 32 32">
<title>facebook</title>
<path d="M19.946 16.537h-2.599v9.262h-3.85v-9.263h-1.832v-3.273h1.831v-2.117c0-1.517 0.721-3.886 3.886-3.886l2.853 0.010v3.178h-2.071c-0.338 0-0.817 0.168-0.817 0.892v1.924h2.934zM15.974 0c-8.808 0-15.974 7.166-15.974 15.974 0 8.807 7.166 15.973 15.974 15.973 8.807 0 15.973-7.166 15.973-15.973 0-8.808-7.165-15.974-15.973-15.974z"></path>
</symbol>
</defs>
</svg>
