<svg xmlns="http://www.w3.org/2000/svg" xmlns:xlink="http://www.w3.org/1999/xlink" width="58" height="52" viewBox="0 0 58 52"><defs><path id="w0nca" d="M505.278 1649.365l-3.698-4.051h-47.335a4.438 4.438 0 1 1 0-8.875h46.595a4.438 4.438 0 0 1 4.438 4.437z"/><path id="w0ncb" d="M452.66 1652.83l23.65-23.65a1.52 1.52 0 0 1 2.15 0l12.901 12.9a1.52 1.52 0 0 1 0 2.15l-23.651 23.651a1.52 1.52 0 0 1-2.15 0l-12.9-12.9a1.52 1.52 0 0 1 0-2.15z"/><path id="w0ncc" d="M479.78 1634.799l5.962 5.962a3.386 3.386 0 0 0 0 4.788l-16.713 16.713a3.386 3.386 0 0 0-4.788 0l-5.962-5.962a3.386 3.386 0 0 0 0-4.788l16.712-16.713a3.386 3.386 0 0 0 4.789 0z"/><path id="w0ncd" d="M463.63 1657.184l23.652-23.651a1.52 1.52 0 0 1 2.15 0l12.9 12.9a1.52 1.52 0 0 1 0 2.15l-23.65 23.652a1.52 1.52 0 0 1-2.15 0l-12.901-12.901a1.52 1.52 0 0 1 0-2.15z"/><path id="w0nce" d="M490.75 1639.152l5.963 5.963a3.386 3.386 0 0 0 0 4.788L480 1666.615a3.386 3.386 0 0 0-4.788 0l-5.962-5.962a3.386 3.386 0 0 0 0-4.788l16.713-16.713a3.386 3.386 0 0 0 4.788 0z"/><path id="w0ncf" d="M449.807 1640.876v34.022a4.438 4.438 0 0 0 4.438 4.438h46.595a4.438 4.438 0 0 0 4.438-4.438v-25.886a3.698 3.698 0 0 0-3.698-3.698h-47.335a4.438 4.438 0 0 1-4.438-4.438z"/><path id="w0ncg" d="M505.3 1667.502h-10.836l-2.658-2.657v-5.04l2.658-2.658H505.3c.84 0 1.52.681 1.52 1.52v7.315c0 .84-.68 1.52-1.52 1.52z"/><path id="w0nch" d="M500.862 1662.322c0 1.39-.961 2.56-2.256 2.87a2.73 2.73 0 0 1-.702.089 2.958 2.958 0 1 1 2.958-2.959z"/><path id="w0nci" d="M500.862 1662.322c0 1.39-.961 2.56-2.256 2.87a2.951 2.951 0 0 1-2.248-2.87c0-1.39.954-2.551 2.248-2.87a2.951 2.951 0 0 1 2.256 2.87z"/></defs><g><g transform="translate(-449 -1628)"><g><use fill="#f6c358" xlink:href="#w0nca"/></g><g><use fill="#44c4a1" xlink:href="#w0ncb"/></g><g><use fill="#3ea69b" xlink:href="#w0ncc"/></g><g><use fill="#44c4a1" xlink:href="#w0ncd"/></g><g><use fill="#3ea69b" xlink:href="#w0nce"/></g><g><use fill="#fcd462" xlink:href="#w0ncf"/></g><g><use fill="#27a2db" xlink:href="#w0ncg"/></g><g><use fill="#d5d6db" xlink:href="#w0nch"/></g><g><use fill="#e1e6e9" xlink:href="#w0nci"/></g></g></g></svg>