<svg xmlns="http://www.w3.org/2000/svg" xmlns:xlink="http://www.w3.org/1999/xlink" width="50" height="50" viewBox="0 0 50 50"><defs><path id="mxzfa" d="M425.4 3572.267l11.145-5.778-11.145-5.815v11.593z"/><path id="mxzfb" d="M446.84 3575.113c-.43 1.864-1.955 3.239-3.79 3.444-4.347.486-8.746.488-13.127.486-4.381.002-8.781 0-13.129-.486-1.835-.205-3.359-1.58-3.787-3.444-.611-2.656-.611-5.554-.611-8.287 0-2.733.007-5.632.618-8.287.429-1.864 1.952-3.24 3.788-3.445 4.347-.485 8.747-.488 13.128-.485 4.38-.003 8.78 0 13.126.485 1.836.206 3.361 1.58 3.79 3.445.61 2.655.606 5.554.606 8.287 0 2.733-.002 5.632-.613 8.287zM429.923 3542c-13.71 0-24.826 11.115-24.826 24.826s11.115 24.826 24.826 24.826c13.71 0 24.826-11.115 24.826-24.826S443.635 3542 429.924 3542z"/></defs><g><g transform="translate(-405 -3542)"><g><g><use fill="#1c1c1c" xlink:href="#mxzfa"/></g><g><use fill="#1c1c1c" xlink:href="#mxzfb"/></g></g></g></g></svg>